<?xml version="1.0" encoding="utf-8"?>
<!-- Generator: Adobe Illustrator 25.4.0, SVG Export Plug-In . SVG Version: 6.00 Build 0)  -->
<svg version="1.1" id="Layer_1" xmlns="http://www.w3.org/2000/svg" xmlns:xlink="http://www.w3.org/1999/xlink" x="0px" y="0px"
	 viewBox="0 0 1024 1024" style="enable-background:new 0 0 1024 1024;" xml:space="preserve">
<style type="text/css">
	.st0{fill:#252241;}
	.st1{fill:#322E51;}
	.st2{fill:#517ABD;}
	.st3{fill:#2FA954;}
	.st4{fill:#FABD0D;}
	.st5{fill:#E84436;}
	.st6{fill:#FFFFFF;}
</style>
<g>
	<rect x="0.9" y="0.5" class="st0" width="1023" height="1023"/>
	<path d="M1024.4,1024H0.4V0h1024V1024z M1.4,1023h1022.1V1H1.4V1023z"/>
</g>
<g>
	<circle class="st1" cx="512.4" cy="384.9" r="230.6"/>
</g>
<g id="b170b945-70c0-47b6-a34c-83e925821676">
	<g id="a855ac24-da82-4f87-a155-26beed80bcbb">
		<g>
			<circle class="st2" cx="600.1" cy="300.7" r="21.5"/>
		</g>
		<g>
			<path class="st3" d="M424.4,451.3H467c11.9,0,21.5,9.6,21.5,21.5l0,0c0,11.9-9.6,21.5-21.5,21.5h-42.6
				c-11.9,0-21.5-9.6-21.5-21.5l0,0C402.9,460.9,412.6,451.3,424.4,451.3z"/>
		</g>
		<g>
			<path class="st4" d="M424.7,365.2L424.7,365.2c11.9,0,21.5,9.6,21.5,21.5l0,0c0,11.9-9.6,21.5-21.5,21.5l0,0
				c-11.9,0-21.5-9.6-21.5-21.5l0,0C403.2,374.9,412.8,365.2,424.7,365.2z"/>
		</g>
		<g>
			<path class="st5" d="M424.7,279.2L424.7,279.2c11.9,0,21.5,9.6,21.5,21.5l0,0c0,11.9-9.6,21.5-21.5,21.5l0,0
				c-11.9,0-21.5-9.6-21.5-21.5l0,0C403.2,288.8,412.8,279.2,424.7,279.2z"/>
		</g>
		<g>
			<path class="st6" d="M557.1,494.5c-12,0-21.7-9.7-21.7-21.7s9.7-21.7,21.7-21.7c11.8,0,21.3-9.5,21.3-21.3v-21.3h-64.3
				c-12,0-21.7-9.7-21.8-21.7l0,0v-86c0.4-12,10.5-21.4,22.5-21c11.4,0.4,20.6,9.6,21,21V365h64.3c12,0,21.7,9.7,21.7,21.7v43
				C621.9,465.5,592.9,494.5,557.1,494.5L557.1,494.5z"/>
		</g>
	</g>
</g>
<g>
	<path class="st6" d="M268.3,764.3l-8.1,24.6h-10.4l26.6-78.2h12.2l26.7,78.2h-10.8l-8.4-24.6H268.3z M293.9,756.4l-7.7-22.5
		c-1.7-5.1-2.9-9.7-4.1-14.3H282c-1.2,4.6-2.4,9.4-3.9,14.2l-7.7,22.6H293.9z"/>
	<path class="st6" d="M325.9,706.5h10.2v82.4h-10.2V706.5z"/>
	<path class="st6" d="M365.6,716.6v16.1h14.6v7.8h-14.6v30.3c0,7,2,10.9,7.7,10.9c2.7,0,4.6-0.3,5.9-0.7l0.5,7.7
		c-2,0.8-5.1,1.4-9,1.4c-4.8,0-8.6-1.5-11-4.3c-2.9-3-3.9-8-3.9-14.6v-30.6h-8.7v-7.8h8.7v-13.5L365.6,716.6z"/>
	<path class="st6" d="M396.7,762.7c0.2,13.8,9,19.5,19.3,19.5c7.3,0,11.7-1.3,15.5-2.9l1.7,7.3c-3.6,1.6-9.7,3.5-18.7,3.5
		c-17.3,0-27.6-11.4-27.6-28.3s10-30.3,26.3-30.3c18.3,0,23.2,16.1,23.2,26.4c0,2.1-0.2,3.7-0.3,4.8H396.7z M426.6,755.4
		c0.1-6.5-2.7-16.6-14.2-16.6c-10.3,0-14.8,9.5-15.7,16.6H426.6z"/>
	<path class="st6" d="M449.1,750.3c0-6.6-0.1-12.3-0.5-17.5h8.9l0.3,11h0.5c2.6-7.5,8.7-12.3,15.5-12.3c1.2,0,2,0.1,2.9,0.3v9.6
		c-1-0.2-2.1-0.3-3.5-0.3c-7.2,0-12.3,5.5-13.7,13.1c-0.2,1.4-0.5,3-0.5,4.8v29.9h-10.1V750.3z"/>
	<path class="st6" d="M487.5,748c0-5.8-0.1-10.6-0.5-15.2h9l0.6,9.3h0.2c2.8-5.3,9.3-10.6,18.6-10.6c7.8,0,19.8,4.6,19.8,23.9v33.5
		h-10.2v-32.4c0-9-3.4-16.6-13-16.6c-6.7,0-11.9,4.8-13.7,10.4c-0.5,1.3-0.7,3-0.7,4.8v33.8h-10.2V748z"/>
	<path class="st6" d="M583,788.9l-0.8-7.1h-0.3c-3.1,4.4-9.2,8.4-17.2,8.4c-11.4,0-17.2-8-17.2-16.1c0-13.6,12.1-21,33.8-20.9V752
		c0-4.6-1.3-13-12.8-13c-5.2,0-10.7,1.6-14.6,4.2l-2.3-6.7c4.6-3,11.4-5,18.4-5c17.2,0,21.3,11.7,21.3,23v21c0,4.9,0.2,9.6,0.9,13.5
		H583z M581.5,760.3c-11.1-0.2-23.8,1.7-23.8,12.6c0,6.6,4.4,9.7,9.6,9.7c7.3,0,11.9-4.6,13.6-9.4c0.3-1,0.6-2.2,0.6-3.2V760.3z"/>
	<path class="st6" d="M619.6,716.6v16.1h14.6v7.8h-14.6v30.3c0,7,2,10.9,7.7,10.9c2.7,0,4.6-0.3,5.9-0.7l0.5,7.7
		c-2,0.8-5.1,1.4-9,1.4c-4.8,0-8.6-1.5-11-4.3c-2.9-3-3.9-8-3.9-14.6v-30.6H601v-7.8h8.7v-13.5L619.6,716.6z"/>
	<path class="st6" d="M657.1,717c0.1,3.5-2.4,6.3-6.5,6.3c-3.6,0-6.1-2.8-6.1-6.3c0-3.6,2.7-6.4,6.4-6.4
		C654.7,710.6,657.1,713.4,657.1,717z M645.7,788.9v-56.1H656v56.1H645.7z"/>
	<path class="st6" d="M676.8,732.8l11,31.6c1.9,5.1,3.4,9.7,4.5,14.4h0.3c1.3-4.6,2.9-9.3,4.8-14.4l10.9-31.6h10.7l-22,56.1h-9.7
		l-21.3-56.1H676.8z"/>
	<path class="st6" d="M733.2,762.7c0.2,13.8,9,19.5,19.3,19.5c7.3,0,11.7-1.3,15.5-2.9l1.7,7.3c-3.6,1.6-9.7,3.5-18.7,3.5
		c-17.3,0-27.6-11.4-27.6-28.3s10-30.3,26.3-30.3c18.3,0,23.2,16.1,23.2,26.4c0,2.1-0.2,3.7-0.3,4.8H733.2z M763.1,755.4
		c0.1-6.5-2.7-16.6-14.2-16.6c-10.3,0-14.8,9.5-15.7,16.6H763.1z"/>
	<path class="st6" d="M269,898.5c3,2,8.4,4.1,13.5,4.1c7.4,0,10.9-3.7,10.9-8.4c0-4.9-2.9-7.5-10.4-10.3
		c-10.1-3.6-14.8-9.2-14.8-15.9c0-9,7.3-16.5,19.4-16.5c5.7,0,10.7,1.6,13.8,3.5l-2.6,7.4c-2.2-1.4-6.3-3.2-11.5-3.2
		c-6,0-9.4,3.5-9.4,7.7c0,4.6,3.4,6.7,10.7,9.5c9.7,3.7,14.7,8.6,14.7,16.9c0,9.9-7.7,16.8-21,16.8c-6.1,0-11.8-1.5-15.8-3.8
		L269,898.5z"/>
	<path class="st6" d="M327.7,837c0.1,3.5-2.4,6.3-6.5,6.3c-3.6,0-6.1-2.8-6.1-6.3c0-3.6,2.7-6.4,6.4-6.4
		C325.2,830.6,327.7,833.4,327.7,837z M316.3,908.9v-56.1h10.2v56.1H316.3z"/>
	<path class="st6" d="M391.8,852.8c-0.2,4.1-0.5,8.6-0.5,15.4v32.6c0,12.9-2.6,20.8-8,25.6c-5.5,5.1-13.3,6.7-20.4,6.7
		c-6.7,0-14.2-1.6-18.7-4.6l2.6-7.8c3.7,2.3,9.5,4.4,16.5,4.4c10.4,0,18.1-5.5,18.1-19.6v-6.3h-0.2c-3.1,5.2-9.2,9.4-17.9,9.4
		c-13.9,0-23.9-11.8-23.9-27.4c0-19,12.4-29.8,25.3-29.8c9.7,0,15.1,5.1,17.5,9.7h0.2l0.5-8.5H391.8z M381.3,874.9
		c0-1.7-0.1-3.2-0.6-4.6c-1.9-5.9-6.8-10.8-14.3-10.8c-9.7,0-16.7,8.2-16.7,21.2c0,11,5.6,20.2,16.6,20.2c6.3,0,11.9-3.9,14.2-10.4
		c0.6-1.7,0.8-3.7,0.8-5.5V874.9z"/>
	<path class="st6" d="M407.6,868c0-5.8-0.1-10.6-0.5-15.2h9l0.6,9.3h0.2c2.8-5.3,9.3-10.6,18.6-10.6c7.8,0,19.8,4.6,19.8,23.9v33.5
		h-10.2v-32.4c0-9-3.4-16.6-13-16.6c-6.7,0-11.9,4.8-13.7,10.4c-0.5,1.3-0.7,3-0.7,4.8v33.8h-10.2V868z"/>
	<path class="st6" d="M503.1,908.9l-0.8-7.1h-0.3c-3.1,4.4-9.2,8.4-17.2,8.4c-11.4,0-17.2-8-17.2-16.1c0-13.6,12.1-21,33.8-20.9V872
		c0-4.6-1.3-13-12.8-13c-5.2,0-10.7,1.6-14.6,4.2l-2.3-6.7c4.6-3,11.4-5,18.4-5c17.2,0,21.3,11.7,21.3,23v21c0,4.9,0.2,9.6,0.9,13.5
		H503.1z M501.6,880.3c-11.1-0.2-23.8,1.7-23.8,12.6c0,6.6,4.4,9.7,9.6,9.7c7.3,0,11.9-4.6,13.6-9.4c0.3-1,0.6-2.2,0.6-3.2V880.3z"
		/>
	<path class="st6" d="M539.7,836.6v16.1h14.6v7.8h-14.6v30.3c0,7,2,10.9,7.7,10.9c2.7,0,4.6-0.3,5.9-0.7l0.5,7.7
		c-2,0.8-5.1,1.4-9,1.4c-4.8,0-8.6-1.5-11-4.3c-2.9-3-3.9-8-3.9-14.6v-30.6H521v-7.8h8.7v-13.5L539.7,836.6z"/>
	<path class="st6" d="M612.8,893.6c0,5.8,0.1,10.9,0.5,15.3h-9l-0.6-9.2h-0.2c-2.7,4.5-8.6,10.4-18.6,10.4
		c-8.8,0-19.4-4.9-19.4-24.6v-32.8h10.2v31.1c0,10.7,3.2,17.9,12.5,17.9c6.8,0,11.6-4.8,13.5-9.3c0.6-1.5,0.9-3.4,0.9-5.2v-34.5
		h10.2V893.6z"/>
	<path class="st6" d="M629.7,870.3c0-6.6-0.1-12.3-0.5-17.5h8.9l0.3,11h0.5c2.6-7.5,8.7-12.3,15.5-12.3c1.2,0,2,0.1,2.9,0.3v9.6
		c-1-0.2-2.1-0.3-3.5-0.3c-7.2,0-12.3,5.5-13.7,13.1c-0.2,1.4-0.5,3-0.5,4.8v29.9h-10.1V870.3z"/>
	<path class="st6" d="M672.2,882.7c0.2,13.8,9,19.5,19.3,19.5c7.3,0,11.7-1.3,15.5-2.9l1.7,7.3c-3.6,1.6-9.7,3.5-18.7,3.5
		c-17.3,0-27.6-11.4-27.6-28.3s10-30.3,26.3-30.3c18.3,0,23.2,16.1,23.2,26.4c0,2.1-0.2,3.7-0.3,4.8H672.2z M702.1,875.4
		c0.1-6.5-2.7-16.6-14.2-16.6c-10.3,0-14.8,9.5-15.7,16.6H702.1z"/>
	<path class="st6" d="M723.2,898.5c3,2,8.4,4.1,13.5,4.1c7.4,0,10.9-3.7,10.9-8.4c0-4.9-2.9-7.5-10.4-10.3
		c-10.1-3.6-14.8-9.2-14.8-15.9c0-9,7.3-16.5,19.4-16.5c5.7,0,10.7,1.6,13.8,3.5l-2.6,7.4c-2.2-1.4-6.3-3.2-11.5-3.2
		c-6,0-9.4,3.5-9.4,7.7c0,4.6,3.4,6.7,10.7,9.5c9.7,3.7,14.7,8.6,14.7,16.9c0,9.9-7.7,16.8-21,16.8c-6.1,0-11.8-1.5-15.8-3.8
		L723.2,898.5z"/>
</g>
</svg>
